<svg width="120" height="32" viewBox="0 0 120 32" fill="none" xmlns="http://www.w3.org/2000/svg">
  <!-- Background Circle -->
  <circle cx="16" cy="16" r="14" fill="#3B82F6" stroke="#1E40AF" stroke-width="2"/>
  
  <!-- Letter G -->
  <path d="M12 10C14.2091 10 16 11.7909 16 14V16H14V14C14 12.8954 13.1046 12 12 12C10.8954 12 10 12.8954 10 14V18C10 19.1046 10.8954 20 12 20C13.1046 20 14 19.1046 14 18V17H12V15H16V18C16 20.2091 14.2091 22 12 22C9.79086 22 8 20.2091 8 18V14C8 11.7909 9.79086 10 12 10Z" fill="white"/>
  
  <!-- Text: gimeast -->
  <text x="38" y="12" fill="#1F2937" font-family="system-ui, -apple-system, sans-serif" font-size="10" font-weight="600">gimeast</text>
  
  <!-- Text: portfolio -->
  <text x="38" y="23" fill="#6B7280" font-family="system-ui, -apple-system, sans-serif" font-size="8" font-weight="400">portfolio</text>
  
  <!-- Decorative dots -->
  <circle cx="108" cy="12" r="1.5" fill="#3B82F6"/>
  <circle cx="112" cy="16" r="1" fill="#60A5FA"/>
  <circle cx="108" cy="20" r="1.5" fill="#93C5FD"/>
</svg>